# MagicaVoxel @ Ephtracy

# group
o 

# material
mtllib M_Turret_LowerLeft.mtl
usemtl palette

# normals
vn -1 0 0
vn 1 0 0
vn 0 0 1
vn 0 0 -1
vn 0 -1 0
vn 0 1 0

# texcoords
vt 0.958984 0.5
vt 0.986328 0.5

# verts
v 0.4 2.4 -1.2
v 0.4 2.4 -2
v 0.4 2.7 -1.2
v 0.4 2.7 -2
v 0.5 2.3 -1.2
v 0.5 2.3 -2
v 0.5 2.4 -1.2
v 0.5 2.4 -2
v 0.5 2.4 -2.9
v 0.5 2.6 -2
v 0.5 2.6 -2.9
v 0.6 2.2 -1.2
v 0.6 2.2 -2
v 0.6 2.3 -1.2
v 0.6 2.3 -2
v 0.6 2.3 -2.7
v 0.6 2.4 -2
v 0.6 2.4 -2.7
v 0.6 2.4 -2.9
v 0.6 2.4 -3
v 0.6 2.5 -2.9
v 0.6 2.5 -3
v 0.8 2 -1.2
v 0.8 2 -2
v 0.8 2.2 -1.2
v 0.8 2.2 -2
v 0.8 2.5 -2
v 0.8 2.5 -2.5
v 0.8 2.6 -1.8
v 0.8 2.6 -2
v 0.8 2.7 -1.8
v 0.8 2.7 -2.5
v 0.6 2.5 -2
v 0.6 2.5 -2.9
v 0.6 2.6 -2
v 0.6 2.6 -2.9
v 0.7 2.4 -2
v 0.7 2.4 -2.7
v 0.7 2.4 -3
v 0.7 2.5 -2
v 0.7 2.5 -3
v 0.7 2.6 -1.8
v 0.7 2.6 -2
v 0.7 2.7 -1.8
v 0.7 2.7 -2
v 0.8 2.3 -2
v 0.8 2.3 -2.7
v 0.8 2.4 -2
v 0.8 2.4 -2.7
v 0.9 2 -1.2
v 0.9 2 -2
v 0.9 2.5 -1.3
v 0.9 2.5 -1.4
v 0.9 2.5 -2
v 0.9 2.5 -2.5
v 0.9 2.6 -1.3
v 0.9 2.6 -1.4
v 0.9 2.7 -1.2
v 0.9 2.7 -2.5
v 0.4 2.4 -1.2
v 0.4 2.7 -1.2
v 0.5 2.3 -1.2
v 0.5 2.4 -1.2
v 0.6 2.2 -1.2
v 0.6 2.3 -1.2
v 0.8 2 -1.2
v 0.8 2.2 -1.2
v 0.9 2 -1.2
v 0.9 2.7 -1.2
v 0.7 2.6 -1.8
v 0.7 2.7 -1.8
v 0.8 2.6 -1.8
v 0.8 2.7 -1.8
v 0.4 2.4 -2
v 0.4 2.7 -2
v 0.5 2.3 -2
v 0.5 2.4 -2
v 0.5 2.6 -2
v 0.6 2.2 -2
v 0.6 2.3 -2
v 0.6 2.4 -2
v 0.6 2.5 -2
v 0.6 2.6 -2
v 0.7 2.4 -2
v 0.7 2.5 -2
v 0.7 2.6 -2
v 0.7 2.7 -2
v 0.8 2 -2
v 0.8 2.2 -2
v 0.8 2.3 -2
v 0.8 2.4 -2
v 0.8 2.5 -2
v 0.8 2.6 -2
v 0.9 2 -2
v 0.9 2.5 -2
v 0.8 2.5 -2.5
v 0.8 2.7 -2.5
v 0.9 2.5 -2.5
v 0.9 2.7 -2.5
v 0.6 2.3 -2.7
v 0.6 2.4 -2.7
v 0.7 2.4 -2.7
v 0.8 2.3 -2.7
v 0.8 2.4 -2.7
v 0.5 2.4 -2.9
v 0.5 2.6 -2.9
v 0.6 2.4 -2.9
v 0.6 2.5 -2.9
v 0.6 2.6 -2.9
v 0.6 2.4 -3
v 0.6 2.5 -3
v 0.7 2.4 -3
v 0.7 2.5 -3
v 0.8 2 -1.2
v 0.9 2 -1.2
v 0.8 2 -2
v 0.9 2 -2
v 0.6 2.2 -1.2
v 0.8 2.2 -1.2
v 0.6 2.2 -2
v 0.8 2.2 -2
v 0.5 2.3 -1.2
v 0.6 2.3 -1.2
v 0.5 2.3 -2
v 0.6 2.3 -2
v 0.8 2.3 -2
v 0.6 2.3 -2.7
v 0.8 2.3 -2.7
v 0.4 2.4 -1.2
v 0.5 2.4 -1.2
v 0.4 2.4 -2
v 0.5 2.4 -2
v 0.6 2.4 -2
v 0.6 2.4 -2.7
v 0.7 2.4 -2.7
v 0.5 2.4 -2.9
v 0.6 2.4 -2.9
v 0.6 2.4 -3
v 0.7 2.4 -3
v 0.8 2.5 -2
v 0.9 2.5 -2
v 0.8 2.5 -2.5
v 0.9 2.5 -2.5
v 0.7 2.4 -2
v 0.8 2.4 -2
v 0.7 2.4 -2.7
v 0.8 2.4 -2.7
v 0.6 2.5 -2
v 0.7 2.5 -2
v 0.6 2.5 -2.9
v 0.6 2.5 -3
v 0.7 2.5 -3
v 0.7 2.6 -1.8
v 0.8 2.6 -1.8
v 0.5 2.6 -2
v 0.6 2.6 -2
v 0.7 2.6 -2
v 0.8 2.6 -2
v 0.5 2.6 -2.9
v 0.6 2.6 -2.9
v 0.4 2.7 -1.2
v 0.9 2.7 -1.2
v 0.7 2.7 -1.8
v 0.8 2.7 -1.8
v 0.4 2.7 -2
v 0.7 2.7 -2
v 0.8 2.7 -2.5
v 0.9 2.7 -2.5

# faces
f 3/2/1 2/2/1 1/2/1
f 4/2/1 2/2/1 3/2/1
f 7/2/1 6/2/1 5/2/1
f 8/2/1 6/2/1 7/2/1
f 10/1/1 9/1/1 8/1/1
f 11/1/1 9/1/1 10/1/1
f 14/2/1 13/2/1 12/2/1
f 15/2/1 13/2/1 14/2/1
f 17/1/1 16/1/1 15/1/1
f 18/1/1 16/1/1 17/1/1
f 21/1/1 20/1/1 19/1/1
f 22/1/1 20/1/1 21/1/1
f 25/2/1 24/2/1 23/2/1
f 26/2/1 24/2/1 25/2/1
f 30/2/1 28/2/1 27/2/1
f 31/2/1 30/2/1 29/2/1
f 32/2/1 28/2/1 30/2/1
f 32/2/1 30/2/1 31/2/1
f 33/1/2 34/1/2 35/1/2
f 35/1/2 34/1/2 36/1/2
f 37/1/2 38/1/2 40/1/2
f 38/1/2 39/1/2 40/1/2
f 40/1/2 39/1/2 41/1/2
f 42/2/2 43/2/2 44/2/2
f 44/2/2 43/2/2 45/2/2
f 46/1/2 47/1/2 48/1/2
f 48/1/2 47/1/2 49/1/2
f 50/2/2 51/2/2 52/2/2
f 52/2/2 51/2/2 53/2/2
f 53/2/2 51/2/2 54/2/2
f 50/2/2 52/2/2 56/2/2
f 52/1/2 53/1/2 56/1/2
f 54/2/2 55/2/2 57/2/2
f 56/1/2 53/1/2 57/1/2
f 53/2/2 54/2/2 57/2/2
f 50/2/2 56/2/2 58/2/2
f 56/2/2 57/2/2 58/2/2
f 57/2/2 55/2/2 59/2/2
f 58/2/2 57/2/2 59/2/2
f 63/2/3 61/2/3 60/2/3
f 65/2/3 63/2/3 62/2/3
f 67/2/3 65/2/3 64/2/3
f 68/2/3 67/2/3 66/2/3
f 69/2/3 61/2/3 63/2/3
f 69/2/3 67/2/3 68/2/3
f 69/2/3 63/2/3 65/2/3
f 69/2/3 65/2/3 67/2/3
f 70/2/4 71/2/4 72/2/4
f 72/2/4 71/2/4 73/2/4
f 74/2/4 75/2/4 77/2/4
f 77/2/4 75/2/4 78/2/4
f 76/2/4 77/2/4 80/2/4
f 80/2/4 77/2/4 81/2/4
f 78/2/4 75/2/4 83/2/4
f 82/2/4 83/2/4 85/2/4
f 83/2/4 75/2/4 86/2/4
f 85/2/4 83/2/4 86/2/4
f 86/2/4 75/2/4 87/2/4
f 79/2/4 80/2/4 89/2/4
f 89/2/4 80/2/4 90/2/4
f 84/2/4 85/2/4 91/2/4
f 85/2/4 86/2/4 91/2/4
f 91/2/4 86/2/4 92/2/4
f 92/2/4 86/2/4 93/2/4
f 89/2/4 90/2/4 94/2/4
f 88/2/4 89/2/4 94/2/4
f 91/2/4 92/2/4 94/2/4
f 90/2/4 91/2/4 94/2/4
f 94/2/4 92/2/4 95/2/4
f 96/2/4 97/2/4 98/2/4
f 98/2/4 97/2/4 99/2/4
f 100/1/4 101/1/4 102/1/4
f 100/1/4 102/1/4 103/1/4
f 103/1/4 102/1/4 104/1/4
f 105/1/4 106/1/4 107/1/4
f 107/1/4 106/1/4 108/1/4
f 108/1/4 106/1/4 109/1/4
f 110/1/4 111/1/4 112/1/4
f 112/1/4 111/1/4 113/1/4
f 116/2/5 115/2/5 114/2/5
f 117/2/5 115/2/5 116/2/5
f 120/2/5 119/2/5 118/2/5
f 121/2/5 119/2/5 120/2/5
f 124/2/5 123/2/5 122/2/5
f 125/2/5 123/2/5 124/2/5
f 127/1/5 126/1/5 125/1/5
f 128/1/5 126/1/5 127/1/5
f 131/2/5 130/2/5 129/2/5
f 132/2/5 130/2/5 131/2/5
f 134/1/5 133/1/5 132/1/5
f 136/1/5 134/1/5 132/1/5
f 136/1/5 135/1/5 134/1/5
f 137/1/5 135/1/5 136/1/5
f 138/1/5 135/1/5 137/1/5
f 139/1/5 135/1/5 138/1/5
f 142/2/5 141/2/5 140/2/5
f 143/2/5 141/2/5 142/2/5
f 144/1/6 145/1/6 146/1/6
f 146/1/6 145/1/6 147/1/6
f 148/1/6 149/1/6 150/1/6
f 150/1/6 149/1/6 151/1/6
f 151/1/6 149/1/6 152/1/6
f 153/2/6 154/2/6 157/2/6
f 157/2/6 154/2/6 158/2/6
f 155/1/6 156/1/6 159/1/6
f 159/1/6 156/1/6 160/1/6
f 161/2/6 162/2/6 163/2/6
f 163/2/6 162/2/6 164/2/6
f 161/2/6 163/2/6 165/2/6
f 165/2/6 163/2/6 166/2/6
f 164/2/6 162/2/6 167/2/6
f 167/2/6 162/2/6 168/2/6
