# MagicaVoxel @ Ephtracy

# group
o 

# material
mtllib P_Turret_Base_L.mtl
usemtl palette

# normals
vn -1 0 0
vn 1 0 0
vn 0 0 1
vn 0 0 -1
vn 0 -1 0
vn 0 1 0

# texcoords
vt 0.978516 0.5
vt 0.994141 0.5

# verts
v 0.8 2.3 0
v 0.8 2.3 -0.1
v 0.8 2.3 -0.4
v 0.8 2.3 -0.5
v 0.8 2.6 -0.1
v 0.8 2.6 -0.4
v 0.8 2.7 0
v 0.8 2.7 -0.5
v 1 2 0
v 1 2 -1.9
v 1 2.1 -0.1
v 1 2.1 -0.4
v 1 2.1 -0.5
v 1 2.1 -1.9
v 1 2.3 0
v 1 2.3 -0.1
v 1 2.3 -0.4
v 1 2.3 -0.5
v 1.4 2.1 -0.5
v 1.4 2.1 -1.9
v 1.4 2.2 -0.6
v 1.4 2.2 -1.9
v 1.4 2.3 -0.5
v 1.4 2.3 -0.6
v 1.5 2.2 -0.6
v 1.5 2.2 -1.9
v 1.5 2.3 -0.5
v 1.5 2.3 -0.6
v 1.5 2.3 -1.9
v 1.5 2.7 -0.5
v 1.5 2.7 -0.6
v 1.6 2.3 -0.6
v 1.6 2.3 -1.9
v 1.6 2.7 -0.6
v 1.6 2.7 -1.9
v 1.9 2 0
v 1.9 2 -1.9
v 1.9 2.7 0
v 1.9 2.7 -1.9
v 0.8 2.3 0
v 0.8 2.7 0
v 1 2 0
v 1 2.3 0
v 1.9 2 0
v 1.9 2.7 0
v 0.8 2.3 -0.5
v 0.8 2.7 -0.5
v 1 2.1 -0.5
v 1 2.3 -0.5
v 1.4 2.1 -0.5
v 1.4 2.3 -0.5
v 1.5 2.3 -0.5
v 1.5 2.7 -0.5
v 1.4 2.2 -0.6
v 1.4 2.3 -0.6
v 1.5 2.2 -0.6
v 1.5 2.3 -0.6
v 1.5 2.7 -0.6
v 1.6 2.3 -0.6
v 1.6 2.7 -0.6
v 1 2 -1.9
v 1 2.1 -1.9
v 1.4 2.1 -1.9
v 1.4 2.2 -1.9
v 1.5 2.2 -1.9
v 1.5 2.3 -1.9
v 1.6 2.3 -1.9
v 1.6 2.7 -1.9
v 1.9 2 -1.9
v 1.9 2.7 -1.9
v 1 2 0
v 1.9 2 0
v 1 2 -1.9
v 1.9 2 -1.9
v 0.8 2.3 0
v 1 2.3 0
v 0.8 2.3 -0.1
v 1 2.3 -0.1
v 0.8 2.3 -0.4
v 1 2.3 -0.4
v 0.8 2.3 -0.5
v 1 2.3 -0.5
v 1 2.1 -0.5
v 1.4 2.1 -0.5
v 1 2.1 -1.9
v 1.4 2.1 -1.9
v 1.4 2.2 -0.6
v 1.5 2.2 -0.6
v 1.4 2.2 -1.9
v 1.5 2.2 -1.9
v 1.4 2.3 -0.5
v 1.5 2.3 -0.5
v 1.4 2.3 -0.6
v 1.5 2.3 -0.6
v 1.6 2.3 -0.6
v 1.5 2.3 -1.9
v 1.6 2.3 -1.9
v 0.8 2.7 0
v 1.9 2.7 0
v 0.8 2.7 -0.5
v 1.5 2.7 -0.5
v 1.5 2.7 -0.6
v 1.6 2.7 -0.6
v 1.6 2.7 -1.9
v 1.9 2.7 -1.9

# faces
f 5/1/1 2/1/1 1/1/1
f 5/2/1 3/2/1 2/2/1
f 6/1/1 4/1/1 3/1/1
f 6/2/1 3/2/1 5/2/1
f 7/1/1 5/1/1 1/1/1
f 7/1/1 6/1/1 5/1/1
f 8/1/1 4/1/1 6/1/1
f 8/1/1 6/1/1 7/1/1
f 11/1/1 10/1/1 9/1/1
f 12/1/1 10/1/1 11/1/1
f 13/1/1 10/1/1 12/1/1
f 14/1/1 10/1/1 13/1/1
f 15/1/1 11/1/1 9/1/1
f 16/2/1 12/2/1 11/2/1
f 16/1/1 11/1/1 15/1/1
f 17/1/1 13/1/1 12/1/1
f 17/2/1 12/2/1 16/2/1
f 18/1/1 13/1/1 17/1/1
f 21/1/1 20/1/1 19/1/1
f 22/1/1 20/1/1 21/1/1
f 23/1/1 21/1/1 19/1/1
f 24/1/1 21/1/1 23/1/1
f 28/1/1 26/1/1 25/1/1
f 29/1/1 26/1/1 28/1/1
f 30/1/1 28/1/1 27/1/1
f 31/1/1 28/1/1 30/1/1
f 34/1/1 33/1/1 32/1/1
f 35/1/1 33/1/1 34/1/1
f 36/1/2 37/1/2 38/1/2
f 38/1/2 37/1/2 39/1/2
f 43/1/3 41/1/3 40/1/3
f 44/1/3 43/1/3 42/1/3
f 45/1/3 41/1/3 43/1/3
f 45/1/3 43/1/3 44/1/3
f 46/1/4 47/1/4 49/1/4
f 48/1/4 49/1/4 50/1/4
f 49/1/4 47/1/4 51/1/4
f 50/1/4 49/1/4 51/1/4
f 51/1/4 47/1/4 52/1/4
f 52/1/4 47/1/4 53/1/4
f 54/1/4 55/1/4 56/1/4
f 56/1/4 55/1/4 57/1/4
f 57/1/4 58/1/4 59/1/4
f 59/1/4 58/1/4 60/1/4
f 61/1/4 62/1/4 63/1/4
f 63/1/4 64/1/4 65/1/4
f 65/1/4 66/1/4 67/1/4
f 61/1/4 63/1/4 69/1/4
f 67/1/4 68/1/4 69/1/4
f 65/1/4 67/1/4 69/1/4
f 63/1/4 65/1/4 69/1/4
f 69/1/4 68/1/4 70/1/4
f 73/1/5 72/1/5 71/1/5
f 74/1/5 72/1/5 73/1/5
f 77/1/5 76/1/5 75/1/5
f 78/1/5 76/1/5 77/1/5
f 79/2/5 78/2/5 77/2/5
f 80/2/5 78/2/5 79/2/5
f 81/1/5 80/1/5 79/1/5
f 82/1/5 80/1/5 81/1/5
f 83/1/6 84/1/6 85/1/6
f 85/1/6 84/1/6 86/1/6
f 87/1/6 88/1/6 89/1/6
f 89/1/6 88/1/6 90/1/6
f 91/1/6 92/1/6 93/1/6
f 93/1/6 92/1/6 94/1/6
f 94/1/6 95/1/6 96/1/6
f 96/1/6 95/1/6 97/1/6
f 98/1/6 99/1/6 100/1/6
f 100/1/6 99/1/6 101/1/6
f 101/1/6 99/1/6 102/1/6
f 102/1/6 99/1/6 103/1/6
f 103/1/6 99/1/6 104/1/6
f 104/1/6 99/1/6 105/1/6
