# MagicaVoxel @ Ephtracy

# group
o 

# material
mtllib Wall_Spike_L.mtl
usemtl palette

# normals
vn -1 0 0
vn 1 0 0
vn 0 0 1
vn 0 0 -1
vn 0 -1 0
vn 0 1 0

# texcoords
vt 0.0644531 0.5
vt 0.923828 0.5

# verts
v -2.2 0.2 0.1
v -2.2 0.2 -0.2
v -2.2 0.3 0.1
v -2.2 0.3 0
v -2.2 0.3 -0.2
v -2.2 0.3 -0.3
v -2.2 0.4 0
v -2.2 0.4 -0.1
v -2.2 0.4 -0.3
v -2.2 0.4 -0.5
v -2.2 0.5 -0.1
v -2.2 0.5 -0.2
v -2.2 0.6 -0.2
v -2.2 0.6 -0.3
v -2.2 0.7 -0.3
v -2.2 0.7 -0.4
v -2.2 0.7 -0.5
v -2.2 0.8 -0.4
v -2.2 0.8 -0.5
v -2 0 0.2
v -2 0 -0.3
v -2 0.2 0.2
v -2 0.2 0.1
v -2 0.2 -0.2
v -2 0.3 -0.2
v -2 0.3 -0.3
v -2 0.3 -0.5
v -2 0.4 -0.3
v -2 0.4 -0.5
v -1.9 0.2 -0.3
v -1.9 0.2 -0.5
v -1.9 0.3 -0.3
v -1.9 0.3 -0.5
v -1.8 0 0.3
v -1.8 0 0.2
v -1.8 0.2 0.3
v -1.8 0.2 0.2
v -1.7 0 0.4
v -1.7 0 0.3
v -1.7 0.2 0.4
v -1.7 0.2 0.3
v -1.7 0.2 0.2
v -1.7 0.2 0.1
v -1.7 0.3 0.2
v -1.7 0.3 0.1
v -1.6 0.2 0.3
v -1.6 0.2 0.2
v -1.6 0.3 0.3
v -1.6 0.3 0.2
v -1.3 0 0.4
v -1.3 0 0.3
v -1.3 0.1 0.3
v -1.3 0.1 0.1
v -1.3 0.2 0.4
v -1.3 0.2 0.3
v -1.3 0.2 0.1
v -1.3 0.3 0.3
v -1.3 0.3 0.1
v -2.1 0.7 -0.4
v -2.1 0.7 -0.5
v -2.1 0.8 -0.4
v -2.1 0.8 -0.5
v -2 0.6 -0.3
v -2 0.6 -0.4
v -2 0.6 -0.5
v -2 0.7 -0.3
v -2 0.7 -0.4
v -2 0.7 -0.5
v -1.9 0.5 -0.2
v -1.9 0.5 -0.3
v -1.9 0.5 -0.5
v -1.9 0.6 -0.2
v -1.9 0.6 -0.3
v -1.9 0.6 -0.5
v -1.8 0.4 -0.1
v -1.8 0.4 -0.2
v -1.8 0.4 -0.5
v -1.8 0.5 -0.1
v -1.8 0.5 -0.2
v -1.8 0.5 -0.5
v -1.7 0.3 0
v -1.7 0.3 -0.1
v -1.7 0.3 -0.5
v -1.7 0.4 0
v -1.7 0.4 -0.1
v -1.7 0.4 -0.5
v -1.6 0.2 -0.1
v -1.6 0.2 -0.3
v -1.6 0.2 -0.5
v -1.6 0.3 -0.1
v -1.6 0.3 -0.5
v -1.5 0 -0.2
v -1.5 0 -0.3
v -1.5 0.2 0
v -1.5 0.2 -0.1
v -1.5 0.2 -0.2
v -1.5 0.2 -0.3
v -1.5 0.3 0
v -1.5 0.3 -0.1
v -1.4 0 0.4
v -1.4 0 0.3
v -1.4 0 -0.1
v -1.4 0 -0.2
v -1.4 0.1 0.3
v -1.4 0.1 0.1
v -1.4 0.2 0.4
v -1.4 0.2 0.3
v -1.4 0.2 0.1
v -1.4 0.2 0
v -1.4 0.2 -0.1
v -1.4 0.2 -0.2
v -1.4 0.3 0.3
v -1.4 0.3 0
v -1.3 0 0
v -1.3 0 -0.1
v -1.3 0.2 0
v -1.3 0.2 -0.1
v -1.2 0 0.4
v -1.2 0 0
v -1.2 0.2 0.4
v -1.2 0.2 0.3
v -1.2 0.2 0.1
v -1.2 0.2 0
v -1.2 0.3 0.3
v -1.2 0.3 0.1
v -1.7 0 0.4
v -1.7 0.2 0.4
v -1.4 0 0.4
v -1.4 0.2 0.4
v -1.3 0 0.4
v -1.3 0.2 0.4
v -1.2 0 0.4
v -1.2 0.2 0.4
v -1.8 0 0.3
v -1.8 0.2 0.3
v -1.7 0 0.3
v -1.7 0.2 0.3
v -1.6 0.2 0.3
v -1.6 0.3 0.3
v -1.4 0 0.3
v -1.4 0.1 0.3
v -1.4 0.2 0.3
v -1.4 0.3 0.3
v -1.3 0 0.3
v -1.3 0.1 0.3
v -1.3 0.2 0.3
v -1.3 0.3 0.3
v -1.2 0.2 0.3
v -1.2 0.3 0.3
v -2 0 0.2
v -2 0.2 0.2
v -1.8 0 0.2
v -1.8 0.2 0.2
v -1.7 0.2 0.2
v -1.7 0.3 0.2
v -1.6 0.2 0.2
v -1.6 0.3 0.2
v -2.2 0.2 0.1
v -2.2 0.3 0.1
v -2 0.2 0.1
v -1.8 0.2 0.1
v -1.8 0.3 0.1
v -1.7 0.2 0.1
v -1.7 0.3 0.1
v -1.4 0.1 0.1
v -1.4 0.2 0.1
v -1.3 0.1 0.1
v -1.3 0.2 0.1
v -2.2 0.3 0
v -2.2 0.4 0
v -1.8 0.3 0
v -1.8 0.4 0
v -1.7 0.3 0
v -1.7 0.4 0
v -2.2 0.4 -0.1
v -2.2 0.5 -0.1
v -1.9 0.4 -0.1
v -1.9 0.5 -0.1
v -1.8 0.4 -0.1
v -1.8 0.5 -0.1
v -2.2 0.5 -0.2
v -2.2 0.6 -0.2
v -2 0.5 -0.2
v -2 0.6 -0.2
v -1.9 0.5 -0.2
v -1.9 0.6 -0.2
v -2.2 0.6 -0.3
v -2.2 0.7 -0.3
v -2.1 0.6 -0.3
v -2.1 0.7 -0.3
v -2 0.6 -0.3
v -2 0.7 -0.3
v -2.2 0.7 -0.4
v -2.2 0.8 -0.4
v -2.1 0.7 -0.4
v -2.1 0.8 -0.4
v -1.3 0.2 0.1
v -1.3 0.3 0.1
v -1.2 0.2 0.1
v -1.2 0.3 0.1
v -1.5 0.2 0
v -1.5 0.3 0
v -1.4 0.2 0
v -1.4 0.3 0
v -1.3 0 0
v -1.3 0.2 0
v -1.2 0 0
v -1.2 0.2 0
v -1.6 0.2 -0.1
v -1.6 0.3 -0.1
v -1.5 0.2 -0.1
v -1.5 0.3 -0.1
v -1.4 0 -0.1
v -1.4 0.2 -0.1
v -1.3 0 -0.1
v -1.3 0.2 -0.1
v -2.2 0.2 -0.2
v -2.2 0.3 -0.2
v -2 0.2 -0.2
v -2 0.3 -0.2
v -1.5 0 -0.2
v -1.5 0.2 -0.2
v -1.4 0 -0.2
v -1.4 0.2 -0.2
v -2.2 0.3 -0.3
v -2.2 0.4 -0.3
v -2 0 -0.3
v -2 0.3 -0.3
v -2 0.4 -0.3
v -1.9 0.2 -0.3
v -1.9 0.3 -0.3
v -1.6 0.2 -0.3
v -1.5 0 -0.3
v -1.5 0.2 -0.3
v -2.2 0.4 -0.5
v -2.2 0.7 -0.5
v -2.2 0.8 -0.5
v -2.1 0.7 -0.5
v -2.1 0.8 -0.5
v -2 0.3 -0.5
v -2 0.4 -0.5
v -2 0.6 -0.5
v -2 0.7 -0.5
v -1.9 0.2 -0.5
v -1.9 0.3 -0.5
v -1.9 0.5 -0.5
v -1.9 0.6 -0.5
v -1.8 0.4 -0.5
v -1.8 0.5 -0.5
v -1.7 0.3 -0.5
v -1.7 0.4 -0.5
v -1.6 0.2 -0.5
v -1.6 0.3 -0.5
v -1.7 0 0.4
v -1.4 0 0.4
v -1.3 0 0.4
v -1.2 0 0.4
v -1.8 0 0.3
v -1.7 0 0.3
v -1.4 0 0.3
v -1.3 0 0.3
v -2 0 0.2
v -1.8 0 0.2
v -1.8 0 0
v -1.7 0 0
v -1.4 0 0
v -1.3 0 0
v -1.2 0 0
v -1.7 0 -0.1
v -1.4 0 -0.1
v -1.3 0 -0.1
v -1.5 0 -0.2
v -1.4 0 -0.2
v -2 0 -0.3
v -1.5 0 -0.3
v -2.2 0.2 0.1
v -2 0.2 0.1
v -2.2 0.2 -0.2
v -2 0.2 -0.2
v -1.9 0.2 -0.3
v -1.6 0.2 -0.3
v -1.9 0.2 -0.5
v -1.6 0.2 -0.5
v -2.2 0.3 -0.2
v -2 0.3 -0.2
v -2.2 0.3 -0.3
v -2 0.3 -0.3
v -1.9 0.3 -0.3
v -2 0.3 -0.5
v -1.9 0.3 -0.5
v -2.2 0.4 -0.3
v -2 0.4 -0.3
v -2.2 0.4 -0.5
v -2 0.4 -0.5
v -1.4 0.1 0.3
v -1.3 0.1 0.3
v -1.4 0.1 0.1
v -1.3 0.1 0.1
v -1.7 0.2 0.4
v -1.4 0.2 0.4
v -1.3 0.2 0.4
v -1.2 0.2 0.4
v -1.8 0.2 0.3
v -1.7 0.2 0.3
v -1.6 0.2 0.3
v -1.4 0.2 0.3
v -1.3 0.2 0.3
v -1.2 0.2 0.3
v -2 0.2 0.2
v -1.8 0.2 0.2
v -1.7 0.2 0.2
v -1.6 0.2 0.2
v -2 0.2 0.1
v -1.8 0.2 0.1
v -1.7 0.2 0.1
v -1.4 0.2 0.1
v -1.3 0.2 0.1
v -1.2 0.2 0.1
v -1.5 0.2 0
v -1.4 0.2 0
v -1.3 0.2 0
v -1.2 0.2 0
v -1.6 0.2 -0.1
v -1.5 0.2 -0.1
v -1.4 0.2 -0.1
v -1.3 0.2 -0.1
v -1.5 0.2 -0.2
v -1.4 0.2 -0.2
v -1.6 0.2 -0.3
v -1.5 0.2 -0.3
v -1.6 0.3 0.3
v -1.4 0.3 0.3
v -1.3 0.3 0.3
v -1.2 0.3 0.3
v -1.7 0.3 0.2
v -1.6 0.3 0.2
v -2.2 0.3 0.1
v -1.8 0.3 0.1
v -1.7 0.3 0.1
v -1.3 0.3 0.1
v -1.2 0.3 0.1
v -2.2 0.3 0
v -1.8 0.3 0
v -1.7 0.3 0
v -1.5 0.3 0
v -1.4 0.3 0
v -1.7 0.3 -0.1
v -1.6 0.3 -0.1
v -1.5 0.3 -0.1
v -1.7 0.3 -0.5
v -1.6 0.3 -0.5
v -2.2 0.4 0
v -1.8 0.4 0
v -1.7 0.4 0
v -2.2 0.4 -0.1
v -1.9 0.4 -0.1
v -1.8 0.4 -0.1
v -1.7 0.4 -0.1
v -1.8 0.4 -0.2
v -1.8 0.4 -0.5
v -1.7 0.4 -0.5
v -2.2 0.5 -0.1
v -1.9 0.5 -0.1
v -1.8 0.5 -0.1
v -2.2 0.5 -0.2
v -2 0.5 -0.2
v -1.9 0.5 -0.2
v -1.8 0.5 -0.2
v -1.9 0.5 -0.3
v -1.9 0.5 -0.5
v -1.8 0.5 -0.5
v -2.2 0.6 -0.2
v -2 0.6 -0.2
v -1.9 0.6 -0.2
v -2.2 0.6 -0.3
v -2.1 0.6 -0.3
v -2 0.6 -0.3
v -1.9 0.6 -0.3
v -2 0.6 -0.4
v -2 0.6 -0.5
v -1.9 0.6 -0.5
v -2.2 0.7 -0.3
v -2.1 0.7 -0.3
v -2 0.7 -0.3
v -2.2 0.7 -0.4
v -2.1 0.7 -0.4
v -2 0.7 -0.4
v -2.1 0.7 -0.5
v -2 0.7 -0.5
v -2.2 0.8 -0.4
v -2.1 0.8 -0.4
v -2.2 0.8 -0.5
v -2.1 0.8 -0.5

# faces
f 3/1/1 2/1/1 1/1/1
f 4/1/1 2/1/1 3/1/1
f 5/1/1 2/1/1 4/1/1
f 7/1/1 6/1/1 5/1/1
f 7/1/1 5/1/1 4/1/1
f 8/1/1 6/1/1 7/1/1
f 9/1/1 6/1/1 8/1/1
f 11/1/1 10/1/1 9/1/1
f 11/1/1 9/1/1 8/1/1
f 12/1/1 10/1/1 11/1/1
f 13/1/1 10/1/1 12/1/1
f 14/1/1 10/1/1 13/1/1
f 15/1/1 10/1/1 14/1/1
f 16/1/1 10/1/1 15/1/1
f 17/1/1 10/1/1 16/1/1
f 18/2/1 17/2/1 16/2/1
f 19/2/1 17/2/1 18/2/1
f 22/1/1 21/1/1 20/1/1
f 23/1/1 21/1/1 22/1/1
f 24/1/1 21/1/1 23/1/1
f 25/1/1 21/1/1 24/1/1
f 26/1/1 21/1/1 25/1/1
f 28/1/1 27/1/1 26/1/1
f 29/1/1 27/1/1 28/1/1
f 32/1/1 31/1/1 30/1/1
f 33/1/1 31/1/1 32/1/1
f 36/2/1 35/2/1 34/2/1
f 37/2/1 35/2/1 36/2/1
f 40/1/1 39/1/1 38/1/1
f 41/1/1 39/1/1 40/1/1
f 44/1/1 43/1/1 42/1/1
f 45/1/1 43/1/1 44/1/1
f 48/1/1 47/1/1 46/1/1
f 49/1/1 47/1/1 48/1/1
f 52/1/1 51/1/1 50/1/1
f 54/1/1 52/1/1 50/1/1
f 54/1/1 53/1/1 52/1/1
f 55/1/1 53/1/1 54/1/1
f 56/1/1 53/1/1 55/1/1
f 57/1/1 56/1/1 55/1/1
f 58/1/1 56/1/1 57/1/1
f 59/2/2 60/2/2 61/2/2
f 61/2/2 60/2/2 62/2/2
f 63/2/2 64/2/2 66/2/2
f 64/1/2 65/1/2 67/1/2
f 66/2/2 64/2/2 67/2/2
f 67/1/2 65/1/2 68/1/2
f 69/2/2 70/2/2 72/2/2
f 70/1/2 71/1/2 73/1/2
f 72/2/2 70/2/2 73/2/2
f 73/1/2 71/1/2 74/1/2
f 75/2/2 76/2/2 78/2/2
f 76/1/2 77/1/2 79/1/2
f 78/2/2 76/2/2 79/2/2
f 79/1/2 77/1/2 80/1/2
f 81/2/2 82/2/2 84/2/2
f 82/1/2 83/1/2 85/1/2
f 84/2/2 82/2/2 85/2/2
f 85/1/2 83/1/2 86/1/2
f 87/1/2 88/1/2 90/1/2
f 88/1/2 89/1/2 90/1/2
f 90/1/2 89/1/2 91/1/2
f 92/1/2 93/1/2 96/1/2
f 96/1/2 93/1/2 97/1/2
f 94/2/2 95/2/2 98/2/2
f 98/2/2 95/2/2 99/2/2
f 100/1/2 101/1/2 104/1/2
f 100/1/2 104/1/2 106/1/2
f 104/1/2 105/1/2 106/1/2
f 106/1/2 105/1/2 107/1/2
f 107/1/2 105/1/2 108/1/2
f 102/1/2 103/1/2 110/1/2
f 110/1/2 103/1/2 111/1/2
f 108/1/2 109/1/2 112/1/2
f 107/1/2 108/1/2 112/1/2
f 112/1/2 109/1/2 113/1/2
f 114/2/2 115/2/2 116/2/2
f 116/2/2 115/2/2 117/2/2
f 118/1/2 119/1/2 120/1/2
f 120/1/2 119/1/2 121/1/2
f 121/1/2 119/1/2 122/1/2
f 122/1/2 119/1/2 123/1/2
f 121/1/2 122/1/2 124/1/2
f 124/1/2 122/1/2 125/1/2
f 128/1/3 127/1/3 126/1/3
f 129/1/3 127/1/3 128/1/3
f 132/1/3 131/1/3 130/1/3
f 133/1/3 131/1/3 132/1/3
f 136/2/3 135/2/3 134/2/3
f 137/2/3 135/2/3 136/2/3
f 142/1/3 139/1/3 138/1/3
f 143/1/3 139/1/3 142/1/3
f 144/2/3 141/2/3 140/2/3
f 145/2/3 141/2/3 144/2/3
f 148/1/3 147/1/3 146/1/3
f 149/1/3 147/1/3 148/1/3
f 152/1/3 151/1/3 150/1/3
f 153/1/3 151/1/3 152/1/3
f 156/1/3 155/1/3 154/1/3
f 157/1/3 155/1/3 156/1/3
f 160/1/3 159/1/3 158/1/3
f 161/1/3 159/1/3 160/1/3
f 162/1/3 159/1/3 161/1/3
f 163/2/3 162/2/3 161/2/3
f 164/2/3 162/2/3 163/2/3
f 167/2/3 166/2/3 165/2/3
f 168/2/3 166/2/3 167/2/3
f 171/1/3 170/1/3 169/1/3
f 172/1/3 170/1/3 171/1/3
f 173/2/3 172/2/3 171/2/3
f 174/2/3 172/2/3 173/2/3
f 177/1/3 176/1/3 175/1/3
f 178/1/3 176/1/3 177/1/3
f 179/2/3 178/2/3 177/2/3
f 180/2/3 178/2/3 179/2/3
f 183/1/3 182/1/3 181/1/3
f 184/1/3 182/1/3 183/1/3
f 185/2/3 184/2/3 183/2/3
f 186/2/3 184/2/3 185/2/3
f 189/1/3 188/1/3 187/1/3
f 190/1/3 188/1/3 189/1/3
f 191/2/3 190/2/3 189/2/3
f 192/2/3 190/2/3 191/2/3
f 195/2/3 194/2/3 193/2/3
f 196/2/3 194/2/3 195/2/3
f 197/1/4 198/1/4 199/1/4
f 199/1/4 198/1/4 200/1/4
f 201/1/4 202/1/4 203/1/4
f 203/1/4 202/1/4 204/1/4
f 205/1/4 206/1/4 207/1/4
f 207/1/4 206/1/4 208/1/4
f 209/2/4 210/2/4 211/2/4
f 211/2/4 210/2/4 212/2/4
f 213/2/4 214/2/4 215/2/4
f 215/2/4 214/2/4 216/2/4
f 217/1/4 218/1/4 219/1/4
f 219/1/4 218/1/4 220/1/4
f 221/1/4 222/1/4 223/1/4
f 223/1/4 222/1/4 224/1/4
f 225/1/4 226/1/4 228/1/4
f 228/1/4 226/1/4 229/1/4
f 227/1/4 228/1/4 230/1/4
f 230/1/4 228/1/4 231/1/4
f 227/1/4 230/1/4 232/1/4
f 227/1/4 232/1/4 233/1/4
f 233/1/4 232/1/4 234/1/4
f 235/1/4 236/1/4 238/1/4
f 236/2/4 237/2/4 238/2/4
f 238/2/4 237/2/4 239/2/4
f 235/1/4 238/1/4 241/1/4
f 241/1/4 238/1/4 242/1/4
f 242/1/4 238/1/4 243/1/4
f 240/1/4 241/1/4 245/1/4
f 241/1/4 242/1/4 245/1/4
f 245/1/4 242/1/4 246/1/4
f 246/1/4 242/1/4 247/1/4
f 244/1/4 245/1/4 248/1/4
f 245/1/4 246/1/4 248/1/4
f 248/1/4 246/1/4 249/1/4
f 244/1/4 248/1/4 250/1/4
f 250/1/4 248/1/4 251/1/4
f 244/1/4 250/1/4 252/1/4
f 252/1/4 250/1/4 253/1/4
f 259/1/5 255/1/5 254/1/5
f 260/1/5 255/1/5 259/1/5
f 261/1/5 257/1/5 256/1/5
f 263/2/5 259/2/5 258/2/5
f 264/2/5 259/2/5 263/2/5
f 264/1/5 263/1/5 262/1/5
f 265/1/5 260/1/5 259/1/5
f 265/2/5 259/2/5 264/2/5
f 266/2/5 261/2/5 260/2/5
f 266/1/5 260/1/5 265/1/5
f 267/1/5 257/1/5 261/1/5
f 267/2/5 261/2/5 266/2/5
f 268/1/5 257/1/5 267/1/5
f 269/1/5 265/1/5 264/1/5
f 269/2/5 266/2/5 265/2/5
f 269/2/5 267/2/5 266/2/5
f 270/2/5 267/2/5 269/2/5
f 271/2/5 267/2/5 270/2/5
f 272/1/5 270/1/5 269/1/5
f 273/1/5 270/1/5 272/1/5
f 274/1/5 264/1/5 262/1/5
f 274/1/5 269/1/5 264/1/5
f 274/1/5 272/1/5 269/1/5
f 275/1/5 272/1/5 274/1/5
f 278/1/5 277/1/5 276/1/5
f 279/1/5 277/1/5 278/1/5
f 282/1/5 281/1/5 280/1/5
f 283/1/5 281/1/5 282/1/5
f 286/1/5 285/1/5 284/1/5
f 287/1/5 285/1/5 286/1/5
f 289/1/5 288/1/5 287/1/5
f 290/1/5 288/1/5 289/1/5
f 293/1/5 292/1/5 291/1/5
f 294/1/5 292/1/5 293/1/5
f 295/2/6 296/2/6 297/2/6
f 297/2/6 296/2/6 298/2/6
f 299/1/6 300/1/6 304/1/6
f 304/1/6 300/1/6 305/1/6
f 305/1/6 300/1/6 306/1/6
f 301/1/6 302/1/6 307/1/6
f 307/1/6 302/1/6 308/1/6
f 303/2/6 304/2/6 310/2/6
f 304/1/6 305/1/6 311/1/6
f 310/2/6 304/2/6 311/2/6
f 311/1/6 305/1/6 312/1/6
f 309/1/6 310/1/6 313/1/6
f 310/2/6 311/2/6 314/2/6
f 313/1/6 310/1/6 314/1/6
f 314/2/6 311/2/6 315/2/6
f 316/2/6 317/2/6 320/2/6
f 317/1/6 318/1/6 321/1/6
f 320/2/6 317/2/6 321/2/6
f 321/1/6 318/1/6 322/1/6
f 319/2/6 320/2/6 324/2/6
f 320/2/6 321/2/6 324/2/6
f 324/2/6 321/2/6 325/2/6
f 325/2/6 321/2/6 326/2/6
f 323/1/6 324/1/6 327/1/6
f 324/1/6 325/1/6 327/1/6
f 327/1/6 325/1/6 328/1/6
f 323/1/6 327/1/6 329/1/6
f 329/1/6 327/1/6 330/1/6
f 331/1/6 332/1/6 336/1/6
f 335/1/6 336/1/6 339/1/6
f 333/1/6 334/1/6 340/1/6
f 340/1/6 334/1/6 341/1/6
f 337/1/6 338/1/6 342/1/6
f 338/2/6 339/2/6 343/2/6
f 342/1/6 338/1/6 343/1/6
f 339/1/6 336/1/6 344/1/6
f 343/2/6 339/2/6 344/2/6
f 336/1/6 332/1/6 345/1/6
f 344/1/6 336/1/6 345/1/6
f 345/1/6 332/1/6 346/1/6
f 344/2/6 345/2/6 347/2/6
f 347/2/6 345/2/6 348/2/6
f 348/2/6 345/2/6 349/2/6
f 347/1/6 348/1/6 350/1/6
f 350/1/6 348/1/6 351/1/6
f 352/1/6 353/1/6 355/1/6
f 355/1/6 353/1/6 356/1/6
f 353/2/6 354/2/6 357/2/6
f 356/1/6 353/1/6 357/1/6
f 357/2/6 354/2/6 358/2/6
f 357/1/6 358/1/6 359/1/6
f 359/1/6 358/1/6 360/1/6
f 360/1/6 358/1/6 361/1/6
f 362/1/6 363/1/6 365/1/6
f 365/1/6 363/1/6 366/1/6
f 363/2/6 364/2/6 367/2/6
f 366/1/6 363/1/6 367/1/6
f 367/2/6 364/2/6 368/2/6
f 367/1/6 368/1/6 369/1/6
f 369/1/6 368/1/6 370/1/6
f 370/1/6 368/1/6 371/1/6
f 372/1/6 373/1/6 375/1/6
f 375/1/6 373/1/6 376/1/6
f 373/2/6 374/2/6 377/2/6
f 376/1/6 373/1/6 377/1/6
f 377/2/6 374/2/6 378/2/6
f 377/1/6 378/1/6 379/1/6
f 379/1/6 378/1/6 380/1/6
f 380/1/6 378/1/6 381/1/6
f 382/1/6 383/1/6 385/1/6
f 383/2/6 384/2/6 386/2/6
f 385/1/6 383/1/6 386/1/6
f 386/2/6 384/2/6 387/2/6
f 386/1/6 387/1/6 388/1/6
f 388/1/6 387/1/6 389/1/6
f 390/2/6 391/2/6 392/2/6
f 392/2/6 391/2/6 393/2/6
