# MagicaVoxel @ Ephtracy

# group
o 

# material
mtllib Wall_Spike.mtl
usemtl palette

# normals
vn -1 0 0
vn 1 0 0
vn 0 0 1
vn 0 0 -1
vn 0 -1 0
vn 0 1 0

# texcoords
vt 0.0644531 0.5
vt 0.923828 0.5

# verts
v 1 0 0.4
v 1 0 0
v 1 0.2 0.4
v 1 0.2 0.3
v 1 0.2 0.1
v 1 0.2 0
v 1 0.3 0.3
v 1 0.3 0.1
v 1.1 0 0
v 1.1 0 -0.1
v 1.1 0.2 0
v 1.1 0.2 -0.1
v 1.2 0 0.4
v 1.2 0 0.3
v 1.2 0 -0.1
v 1.2 0 -0.2
v 1.2 0.1 0.3
v 1.2 0.1 0.1
v 1.2 0.2 0.4
v 1.2 0.2 0.3
v 1.2 0.2 0.1
v 1.2 0.2 0
v 1.2 0.2 -0.1
v 1.2 0.2 -0.2
v 1.2 0.3 0.3
v 1.2 0.3 0
v 1.3 0 -0.2
v 1.3 0 -0.3
v 1.3 0.2 0
v 1.3 0.2 -0.1
v 1.3 0.2 -0.2
v 1.3 0.2 -0.3
v 1.3 0.3 0
v 1.3 0.3 -0.1
v 1.4 0.2 -0.1
v 1.4 0.2 -0.3
v 1.4 0.2 -0.5
v 1.4 0.3 -0.1
v 1.4 0.3 -0.5
v 1.5 0.3 0
v 1.5 0.3 -0.1
v 1.5 0.3 -0.5
v 1.5 0.4 0
v 1.5 0.4 -0.1
v 1.5 0.4 -0.5
v 1.6 0.4 -0.1
v 1.6 0.4 -0.2
v 1.6 0.4 -0.5
v 1.6 0.5 -0.1
v 1.6 0.5 -0.2
v 1.6 0.5 -0.5
v 1.7 0.5 -0.2
v 1.7 0.5 -0.3
v 1.7 0.5 -0.5
v 1.7 0.6 -0.2
v 1.7 0.6 -0.3
v 1.7 0.6 -0.5
v 1.8 0.6 -0.3
v 1.8 0.6 -0.4
v 1.8 0.6 -0.5
v 1.8 0.7 -0.3
v 1.8 0.7 -0.4
v 1.8 0.7 -0.5
v 1.9 0.7 -0.4
v 1.9 0.7 -0.5
v 1.9 0.8 -0.4
v 1.9 0.8 -0.5
v 1.1 0 0.4
v 1.1 0 0.3
v 1.1 0.1 0.3
v 1.1 0.1 0.1
v 1.1 0.2 0.4
v 1.1 0.2 0.3
v 1.1 0.2 0.1
v 1.1 0.3 0.3
v 1.1 0.3 0.1
v 1.4 0.2 0.3
v 1.4 0.2 0.2
v 1.4 0.3 0.3
v 1.4 0.3 0.2
v 1.5 0 0.4
v 1.5 0 0.3
v 1.5 0.2 0.4
v 1.5 0.2 0.3
v 1.5 0.2 0.2
v 1.5 0.2 0.1
v 1.5 0.3 0.2
v 1.5 0.3 0.1
v 1.6 0 0.3
v 1.6 0 0.2
v 1.6 0.2 0.3
v 1.6 0.2 0.2
v 1.7 0.2 -0.3
v 1.7 0.2 -0.5
v 1.7 0.3 -0.3
v 1.7 0.3 -0.5
v 1.8 0 0.2
v 1.8 0 -0.3
v 1.8 0.2 0.2
v 1.8 0.2 0.1
v 1.8 0.2 -0.2
v 1.8 0.3 -0.2
v 1.8 0.3 -0.3
v 1.8 0.3 -0.5
v 1.8 0.4 -0.3
v 1.8 0.4 -0.5
v 2 0.2 0.1
v 2 0.2 -0.2
v 2 0.3 0.1
v 2 0.3 0
v 2 0.3 -0.2
v 2 0.3 -0.3
v 2 0.4 0
v 2 0.4 -0.1
v 2 0.4 -0.3
v 2 0.4 -0.5
v 2 0.5 -0.1
v 2 0.5 -0.2
v 2 0.6 -0.2
v 2 0.6 -0.3
v 2 0.7 -0.3
v 2 0.7 -0.4
v 2 0.7 -0.5
v 2 0.8 -0.4
v 2 0.8 -0.5
v 1 0 0.4
v 1 0.2 0.4
v 1.1 0 0.4
v 1.1 0.2 0.4
v 1.2 0 0.4
v 1.2 0.2 0.4
v 1.5 0 0.4
v 1.5 0.2 0.4
v 1 0.2 0.3
v 1 0.3 0.3
v 1.1 0 0.3
v 1.1 0.1 0.3
v 1.1 0.2 0.3
v 1.1 0.3 0.3
v 1.2 0 0.3
v 1.2 0.1 0.3
v 1.2 0.2 0.3
v 1.2 0.3 0.3
v 1.4 0.2 0.3
v 1.4 0.3 0.3
v 1.5 0 0.3
v 1.5 0.2 0.3
v 1.6 0 0.3
v 1.6 0.2 0.3
v 1.4 0.2 0.2
v 1.4 0.3 0.2
v 1.5 0.2 0.2
v 1.5 0.3 0.2
v 1.6 0 0.2
v 1.6 0.2 0.2
v 1.8 0 0.2
v 1.8 0.2 0.2
v 1.1 0.1 0.1
v 1.1 0.2 0.1
v 1.2 0.1 0.1
v 1.2 0.2 0.1
v 1.5 0.2 0.1
v 1.5 0.3 0.1
v 1.6 0.2 0.1
v 1.6 0.3 0.1
v 1.8 0.2 0.1
v 2 0.2 0.1
v 2 0.3 0.1
v 1.5 0.3 0
v 1.5 0.4 0
v 1.6 0.3 0
v 1.6 0.4 0
v 2 0.3 0
v 2 0.4 0
v 1.6 0.4 -0.1
v 1.6 0.5 -0.1
v 1.7 0.4 -0.1
v 1.7 0.5 -0.1
v 2 0.4 -0.1
v 2 0.5 -0.1
v 1.7 0.5 -0.2
v 1.7 0.6 -0.2
v 1.8 0.5 -0.2
v 1.8 0.6 -0.2
v 2 0.5 -0.2
v 2 0.6 -0.2
v 1.8 0.6 -0.3
v 1.8 0.7 -0.3
v 1.9 0.6 -0.3
v 1.9 0.7 -0.3
v 2 0.6 -0.3
v 2 0.7 -0.3
v 1.9 0.7 -0.4
v 1.9 0.8 -0.4
v 2 0.7 -0.4
v 2 0.8 -0.4
v 1 0.2 0.1
v 1 0.3 0.1
v 1.1 0.2 0.1
v 1.1 0.3 0.1
v 1 0 0
v 1 0.2 0
v 1.1 0 0
v 1.1 0.2 0
v 1.2 0.2 0
v 1.2 0.3 0
v 1.3 0.2 0
v 1.3 0.3 0
v 1.1 0 -0.1
v 1.1 0.2 -0.1
v 1.2 0 -0.1
v 1.2 0.2 -0.1
v 1.3 0.2 -0.1
v 1.3 0.3 -0.1
v 1.4 0.2 -0.1
v 1.4 0.3 -0.1
v 1.2 0 -0.2
v 1.2 0.2 -0.2
v 1.3 0 -0.2
v 1.3 0.2 -0.2
v 1.8 0.2 -0.2
v 1.8 0.3 -0.2
v 2 0.2 -0.2
v 2 0.3 -0.2
v 1.3 0 -0.3
v 1.3 0.2 -0.3
v 1.4 0.2 -0.3
v 1.7 0.2 -0.3
v 1.7 0.3 -0.3
v 1.8 0 -0.3
v 1.8 0.3 -0.3
v 1.8 0.4 -0.3
v 2 0.3 -0.3
v 2 0.4 -0.3
v 1.4 0.2 -0.5
v 1.4 0.3 -0.5
v 1.5 0.3 -0.5
v 1.5 0.4 -0.5
v 1.6 0.4 -0.5
v 1.6 0.5 -0.5
v 1.7 0.2 -0.5
v 1.7 0.3 -0.5
v 1.7 0.5 -0.5
v 1.7 0.6 -0.5
v 1.8 0.3 -0.5
v 1.8 0.4 -0.5
v 1.8 0.6 -0.5
v 1.8 0.7 -0.5
v 1.9 0.7 -0.5
v 1.9 0.8 -0.5
v 2 0.4 -0.5
v 2 0.7 -0.5
v 2 0.8 -0.5
v 1 0 0.4
v 1.1 0 0.4
v 1.2 0 0.4
v 1.5 0 0.4
v 1.1 0 0.3
v 1.2 0 0.3
v 1.5 0 0.3
v 1.6 0 0.3
v 1.6 0 0.2
v 1.8 0 0.2
v 1 0 0
v 1.1 0 0
v 1.2 0 0
v 1.5 0 0
v 1.1 0 -0.1
v 1.2 0 -0.1
v 1.6 0 -0.1
v 1.2 0 -0.2
v 1.3 0 -0.2
v 1.3 0 -0.3
v 1.8 0 -0.3
v 1.8 0.2 0.1
v 2 0.2 0.1
v 1.8 0.2 -0.2
v 2 0.2 -0.2
v 1.4 0.2 -0.3
v 1.7 0.2 -0.3
v 1.4 0.2 -0.5
v 1.7 0.2 -0.5
v 1.8 0.3 -0.2
v 2 0.3 -0.2
v 1.7 0.3 -0.3
v 1.8 0.3 -0.3
v 2 0.3 -0.3
v 1.7 0.3 -0.5
v 1.8 0.3 -0.5
v 1.8 0.4 -0.3
v 2 0.4 -0.3
v 1.8 0.4 -0.5
v 2 0.4 -0.5
v 1.1 0.1 0.3
v 1.2 0.1 0.3
v 1.1 0.1 0.1
v 1.2 0.1 0.1
v 1 0.2 0.4
v 1.1 0.2 0.4
v 1.2 0.2 0.4
v 1.5 0.2 0.4
v 1 0.2 0.3
v 1.1 0.2 0.3
v 1.2 0.2 0.3
v 1.4 0.2 0.3
v 1.5 0.2 0.3
v 1.6 0.2 0.3
v 1.4 0.2 0.2
v 1.5 0.2 0.2
v 1.6 0.2 0.2
v 1.8 0.2 0.2
v 1 0.2 0.1
v 1.1 0.2 0.1
v 1.2 0.2 0.1
v 1.5 0.2 0.1
v 1.6 0.2 0.1
v 1.8 0.2 0.1
v 1 0.2 0
v 1.1 0.2 0
v 1.2 0.2 0
v 1.3 0.2 0
v 1.1 0.2 -0.1
v 1.2 0.2 -0.1
v 1.3 0.2 -0.1
v 1.4 0.2 -0.1
v 1.2 0.2 -0.2
v 1.3 0.2 -0.2
v 1.3 0.2 -0.3
v 1.4 0.2 -0.3
v 1 0.3 0.3
v 1.1 0.3 0.3
v 1.2 0.3 0.3
v 1.4 0.3 0.3
v 1.4 0.3 0.2
v 1.5 0.3 0.2
v 1 0.3 0.1
v 1.1 0.3 0.1
v 1.5 0.3 0.1
v 1.6 0.3 0.1
v 2 0.3 0.1
v 1.2 0.3 0
v 1.3 0.3 0
v 1.5 0.3 0
v 1.6 0.3 0
v 2 0.3 0
v 1.3 0.3 -0.1
v 1.4 0.3 -0.1
v 1.5 0.3 -0.1
v 1.4 0.3 -0.5
v 1.5 0.3 -0.5
v 1.5 0.4 0
v 1.6 0.4 0
v 2 0.4 0
v 1.5 0.4 -0.1
v 1.6 0.4 -0.1
v 1.7 0.4 -0.1
v 2 0.4 -0.1
v 1.6 0.4 -0.2
v 1.5 0.4 -0.5
v 1.6 0.4 -0.5
v 1.6 0.5 -0.1
v 1.7 0.5 -0.1
v 2 0.5 -0.1
v 1.6 0.5 -0.2
v 1.7 0.5 -0.2
v 1.8 0.5 -0.2
v 2 0.5 -0.2
v 1.7 0.5 -0.3
v 1.6 0.5 -0.5
v 1.7 0.5 -0.5
v 1.7 0.6 -0.2
v 1.8 0.6 -0.2
v 2 0.6 -0.2
v 1.7 0.6 -0.3
v 1.8 0.6 -0.3
v 1.9 0.6 -0.3
v 2 0.6 -0.3
v 1.8 0.6 -0.4
v 1.7 0.6 -0.5
v 1.8 0.6 -0.5
v 1.8 0.7 -0.3
v 1.9 0.7 -0.3
v 2 0.7 -0.3
v 1.8 0.7 -0.4
v 1.9 0.7 -0.4
v 2 0.7 -0.4
v 1.8 0.7 -0.5
v 1.9 0.7 -0.5
v 1.9 0.8 -0.4
v 2 0.8 -0.4
v 1.9 0.8 -0.5
v 2 0.8 -0.5

# faces
f 3/1/1 2/1/1 1/1/1
f 4/1/1 2/1/1 3/1/1
f 5/1/1 2/1/1 4/1/1
f 6/1/1 2/1/1 5/1/1
f 7/1/1 5/1/1 4/1/1
f 8/1/1 5/1/1 7/1/1
f 11/2/1 10/2/1 9/2/1
f 12/2/1 10/2/1 11/2/1
f 17/1/1 14/1/1 13/1/1
f 19/1/1 17/1/1 13/1/1
f 19/1/1 18/1/1 17/1/1
f 20/1/1 18/1/1 19/1/1
f 21/1/1 18/1/1 20/1/1
f 23/1/1 16/1/1 15/1/1
f 24/1/1 16/1/1 23/1/1
f 25/1/1 22/1/1 21/1/1
f 25/1/1 21/1/1 20/1/1
f 26/1/1 22/1/1 25/1/1
f 31/1/1 28/1/1 27/1/1
f 32/1/1 28/1/1 31/1/1
f 33/2/1 30/2/1 29/2/1
f 34/2/1 30/2/1 33/2/1
f 38/1/1 36/1/1 35/1/1
f 38/1/1 37/1/1 36/1/1
f 39/1/1 37/1/1 38/1/1
f 43/2/1 41/2/1 40/2/1
f 44/1/1 42/1/1 41/1/1
f 44/2/1 41/2/1 43/2/1
f 45/1/1 42/1/1 44/1/1
f 49/2/1 47/2/1 46/2/1
f 50/1/1 48/1/1 47/1/1
f 50/2/1 47/2/1 49/2/1
f 51/1/1 48/1/1 50/1/1
f 55/2/1 53/2/1 52/2/1
f 56/1/1 54/1/1 53/1/1
f 56/2/1 53/2/1 55/2/1
f 57/1/1 54/1/1 56/1/1
f 61/2/1 59/2/1 58/2/1
f 62/1/1 60/1/1 59/1/1
f 62/2/1 59/2/1 61/2/1
f 63/1/1 60/1/1 62/1/1
f 66/2/1 65/2/1 64/2/1
f 67/2/1 65/2/1 66/2/1
f 68/1/2 69/1/2 70/1/2
f 68/1/2 70/1/2 72/1/2
f 70/1/2 71/1/2 72/1/2
f 72/1/2 71/1/2 73/1/2
f 73/1/2 71/1/2 74/1/2
f 73/1/2 74/1/2 75/1/2
f 75/1/2 74/1/2 76/1/2
f 77/1/2 78/1/2 79/1/2
f 79/1/2 78/1/2 80/1/2
f 81/1/2 82/1/2 83/1/2
f 83/1/2 82/1/2 84/1/2
f 85/1/2 86/1/2 87/1/2
f 87/1/2 86/1/2 88/1/2
f 89/2/2 90/2/2 91/2/2
f 91/2/2 90/2/2 92/2/2
f 93/1/2 94/1/2 95/1/2
f 95/1/2 94/1/2 96/1/2
f 97/1/2 98/1/2 99/1/2
f 99/1/2 98/1/2 100/1/2
f 100/1/2 98/1/2 101/1/2
f 101/1/2 98/1/2 102/1/2
f 102/1/2 98/1/2 103/1/2
f 103/1/2 104/1/2 105/1/2
f 105/1/2 104/1/2 106/1/2
f 107/1/2 108/1/2 109/1/2
f 109/1/2 108/1/2 110/1/2
f 110/1/2 108/1/2 111/1/2
f 111/1/2 112/1/2 113/1/2
f 110/1/2 111/1/2 113/1/2
f 113/1/2 112/1/2 114/1/2
f 114/1/2 112/1/2 115/1/2
f 115/1/2 116/1/2 117/1/2
f 114/1/2 115/1/2 117/1/2
f 117/1/2 116/1/2 118/1/2
f 118/1/2 116/1/2 119/1/2
f 119/1/2 116/1/2 120/1/2
f 120/1/2 116/1/2 121/1/2
f 121/1/2 116/1/2 122/1/2
f 122/1/2 116/1/2 123/1/2
f 122/2/2 123/2/2 124/2/2
f 124/2/2 123/2/2 125/2/2
f 128/1/3 127/1/3 126/1/3
f 129/1/3 127/1/3 128/1/3
f 132/1/3 131/1/3 130/1/3
f 133/1/3 131/1/3 132/1/3
f 138/1/3 135/1/3 134/1/3
f 139/1/3 135/1/3 138/1/3
f 140/2/3 137/2/3 136/2/3
f 141/2/3 137/2/3 140/2/3
f 144/1/3 143/1/3 142/1/3
f 145/1/3 143/1/3 144/1/3
f 148/2/3 147/2/3 146/2/3
f 149/2/3 147/2/3 148/2/3
f 152/1/3 151/1/3 150/1/3
f 153/1/3 151/1/3 152/1/3
f 156/1/3 155/1/3 154/1/3
f 157/1/3 155/1/3 156/1/3
f 160/2/3 159/2/3 158/2/3
f 161/2/3 159/2/3 160/2/3
f 164/2/3 163/2/3 162/2/3
f 165/2/3 163/2/3 164/2/3
f 166/1/3 165/1/3 164/1/3
f 167/1/3 165/1/3 166/1/3
f 168/1/3 165/1/3 167/1/3
f 171/2/3 170/2/3 169/2/3
f 172/2/3 170/2/3 171/2/3
f 173/1/3 172/1/3 171/1/3
f 174/1/3 172/1/3 173/1/3
f 177/2/3 176/2/3 175/2/3
f 178/2/3 176/2/3 177/2/3
f 179/1/3 178/1/3 177/1/3
f 180/1/3 178/1/3 179/1/3
f 183/2/3 182/2/3 181/2/3
f 184/2/3 182/2/3 183/2/3
f 185/1/3 184/1/3 183/1/3
f 186/1/3 184/1/3 185/1/3
f 189/2/3 188/2/3 187/2/3
f 190/2/3 188/2/3 189/2/3
f 191/1/3 190/1/3 189/1/3
f 192/1/3 190/1/3 191/1/3
f 195/2/3 194/2/3 193/2/3
f 196/2/3 194/2/3 195/2/3
f 197/1/4 198/1/4 199/1/4
f 199/1/4 198/1/4 200/1/4
f 201/1/4 202/1/4 203/1/4
f 203/1/4 202/1/4 204/1/4
f 205/1/4 206/1/4 207/1/4
f 207/1/4 206/1/4 208/1/4
f 209/2/4 210/2/4 211/2/4
f 211/2/4 210/2/4 212/2/4
f 213/2/4 214/2/4 215/2/4
f 215/2/4 214/2/4 216/2/4
f 217/1/4 218/1/4 219/1/4
f 219/1/4 218/1/4 220/1/4
f 221/1/4 222/1/4 223/1/4
f 223/1/4 222/1/4 224/1/4
f 225/1/4 226/1/4 227/1/4
f 225/1/4 227/1/4 228/1/4
f 225/1/4 228/1/4 230/1/4
f 228/1/4 229/1/4 230/1/4
f 230/1/4 229/1/4 231/1/4
f 231/1/4 232/1/4 233/1/4
f 233/1/4 232/1/4 234/1/4
f 235/1/4 236/1/4 237/1/4
f 237/1/4 238/1/4 239/1/4
f 235/1/4 237/1/4 241/1/4
f 239/1/4 240/1/4 241/1/4
f 237/1/4 239/1/4 241/1/4
f 241/1/4 240/1/4 242/1/4
f 242/1/4 240/1/4 243/1/4
f 243/1/4 244/1/4 245/1/4
f 242/1/4 243/1/4 245/1/4
f 245/1/4 244/1/4 246/1/4
f 246/1/4 244/1/4 247/1/4
f 247/1/4 248/1/4 249/1/4
f 246/1/4 247/1/4 249/1/4
f 246/1/4 249/1/4 251/1/4
f 249/2/4 250/2/4 252/2/4
f 251/1/4 249/1/4 252/1/4
f 252/2/4 250/2/4 253/2/4
f 258/1/5 255/1/5 254/1/5
f 259/1/5 257/1/5 256/1/5
f 260/1/5 257/1/5 259/1/5
f 262/2/5 261/2/5 260/2/5
f 264/1/5 258/1/5 254/1/5
f 265/2/5 259/2/5 258/2/5
f 265/1/5 258/1/5 264/1/5
f 266/1/5 260/1/5 259/1/5
f 266/2/5 259/2/5 265/2/5
f 267/2/5 262/2/5 260/2/5
f 267/1/5 260/1/5 266/1/5
f 268/2/5 266/2/5 265/2/5
f 268/2/5 267/2/5 266/2/5
f 269/2/5 267/2/5 268/2/5
f 270/1/5 263/1/5 262/1/5
f 270/2/5 267/2/5 269/2/5
f 270/2/5 262/2/5 267/2/5
f 271/1/5 270/1/5 269/1/5
f 272/1/5 270/1/5 271/1/5
f 273/1/5 270/1/5 272/1/5
f 274/1/5 263/1/5 270/1/5
f 274/1/5 270/1/5 273/1/5
f 277/1/5 276/1/5 275/1/5
f 278/1/5 276/1/5 277/1/5
f 281/1/5 280/1/5 279/1/5
f 282/1/5 280/1/5 281/1/5
f 286/1/5 284/1/5 283/1/5
f 287/1/5 284/1/5 286/1/5
f 288/1/5 286/1/5 285/1/5
f 289/1/5 286/1/5 288/1/5
f 292/1/5 291/1/5 290/1/5
f 293/1/5 291/1/5 292/1/5
f 294/2/6 295/2/6 296/2/6
f 296/2/6 295/2/6 297/2/6
f 298/1/6 299/1/6 302/1/6
f 302/1/6 299/1/6 303/1/6
f 300/1/6 301/1/6 304/1/6
f 304/1/6 301/1/6 305/1/6
f 305/1/6 301/1/6 306/1/6
f 305/1/6 306/1/6 308/1/6
f 306/2/6 307/2/6 309/2/6
f 308/1/6 306/1/6 309/1/6
f 309/2/6 307/2/6 310/2/6
f 309/2/6 310/2/6 315/2/6
f 310/1/6 311/1/6 316/1/6
f 315/2/6 310/2/6 316/2/6
f 316/1/6 311/1/6 317/1/6
f 312/1/6 313/1/6 318/1/6
f 313/2/6 314/2/6 319/2/6
f 318/1/6 313/1/6 319/1/6
f 319/2/6 314/2/6 320/2/6
f 320/2/6 321/2/6 322/2/6
f 319/2/6 320/2/6 322/2/6
f 322/2/6 321/2/6 323/2/6
f 323/2/6 321/2/6 324/2/6
f 324/1/6 325/1/6 326/1/6
f 323/1/6 324/1/6 326/1/6
f 326/1/6 325/1/6 327/1/6
f 327/1/6 325/1/6 328/1/6
f 328/1/6 325/1/6 329/1/6
f 332/1/6 333/1/6 334/1/6
f 330/1/6 331/1/6 336/1/6
f 336/1/6 331/1/6 337/1/6
f 334/1/6 335/1/6 338/1/6
f 332/1/6 334/1/6 341/1/6
f 334/1/6 338/1/6 341/1/6
f 341/1/6 338/1/6 342/1/6
f 338/2/6 339/2/6 343/2/6
f 342/1/6 338/1/6 343/1/6
f 339/1/6 340/1/6 344/1/6
f 343/2/6 339/2/6 344/2/6
f 344/1/6 340/1/6 345/1/6
f 342/2/6 343/2/6 346/2/6
f 346/2/6 343/2/6 347/2/6
f 347/2/6 343/2/6 348/2/6
f 347/1/6 348/1/6 349/1/6
f 349/1/6 348/1/6 350/1/6
f 351/2/6 352/2/6 354/2/6
f 352/1/6 353/1/6 355/1/6
f 354/2/6 352/2/6 355/2/6
f 355/1/6 353/1/6 356/1/6
f 356/1/6 353/1/6 357/1/6
f 354/1/6 355/1/6 358/1/6
f 354/1/6 358/1/6 359/1/6
f 359/1/6 358/1/6 360/1/6
f 361/2/6 362/2/6 364/2/6
f 362/1/6 363/1/6 365/1/6
f 364/2/6 362/2/6 365/2/6
f 365/1/6 363/1/6 366/1/6
f 366/1/6 363/1/6 367/1/6
f 364/1/6 365/1/6 368/1/6
f 364/1/6 368/1/6 369/1/6
f 369/1/6 368/1/6 370/1/6
f 371/2/6 372/2/6 374/2/6
f 372/1/6 373/1/6 375/1/6
f 374/2/6 372/2/6 375/2/6
f 375/1/6 373/1/6 376/1/6
f 376/1/6 373/1/6 377/1/6
f 374/1/6 375/1/6 378/1/6
f 374/1/6 378/1/6 379/1/6
f 379/1/6 378/1/6 380/1/6
f 381/2/6 382/2/6 384/2/6
f 382/1/6 383/1/6 385/1/6
f 384/2/6 382/2/6 385/2/6
f 385/1/6 383/1/6 386/1/6
f 384/1/6 385/1/6 387/1/6
f 387/1/6 385/1/6 388/1/6
f 389/2/6 390/2/6 391/2/6
f 391/2/6 390/2/6 392/2/6
